<svg xmlns="http://www.w3.org/2000/svg" width="25" height="23" viewBox="0 0 25 23">
  <g fill="#FFF" transform="translate(.754 .487)">
    <circle cx="19" cy="3" r="3"/>
    <path d="M22.2929688 7.2929688L20.5585938 9.0273438C20.1967773 9.3876953 19.625 9.418457 19.2265625 9.1010742L12.0224609 3.3374023C10.8276367 2.3808593 9.1103515 2.4760742 8.0273437 3.5585937L6.2929687 5.2929687C5.9023437 5.6835937 5.9023437 6.3164062 6.2929687 6.7070312 6.6835937 7.0976562 7.3164062 7.0976562 7.7070312 6.7070312L9.4414062 4.9726562C9.8017578 4.6108398 10.3735351 4.5805664 10.7734374 4.8989257L13.5031127 7.0828246 10.2929687 10.2929686C9.6547851 10.9311522 9.3398437 11.8120116 9.4287109 12.7099608 9.5175781 13.60791 9.9995117 14.409668 10.75 14.9101562L13.796875 16.9726562 11.203125 20.395996C10.8696289 20.8364257 10.9560547 21.4633788 11.3959961 21.7968749 11.5766602 21.934082 11.7890625 22 11.9990234 22 12.3017578 22 12.6005859 21.8632812 12.796875 21.6040039L15.375 18.2011719C15.7241211 17.7646485 15.875 17.1972657 15.7890625 16.6445313 15.703125 16.0922852 15.3867187 15.5976563 14.921875 15.288086L11.859375 13.2460938C11.609375 13.0791016 11.4487305 12.8120118 11.4189453 12.5126954 11.3896484 12.213379 11.4946289 11.919922 11.7070312 11.7070313L15.0742797 8.3397828 17.977539 10.6625977C18.5288085 11.1040039 19.1909179 11.3212891 19.8510742 11.3212891 20.6220703 11.3212891 21.3896484 11.0244141 21.9726562 10.4414063L23.7070312 8.7070313C24.0976562 8.3164063 24.0976562 7.6835938 23.7070312 7.2929688 23.3164062 6.9023438 22.6835938 6.9023438 22.2929688 7.2929688zM6.29296888 14.2929688L.292968804 20.2929688C-.0976562012 20.6835938-.0976562012 21.3164063.292968804 21.7070313.488281206 21.9023438.744140609 22 1.00000001 22 1.25585942 22 1.51171882 21.9023438 1.70703122 21.7070312L7.7070313 15.7070312C8.0976563 15.3164062 8.0976563 14.6835937 7.7070313 14.2929687 7.31640629 13.9023437 6.68359388 13.9023438 6.29296888 14.2929688z"/>
  </g>
</svg>
