<svg xmlns="http://www.w3.org/2000/svg" width="16" height="16" viewBox="0 0 16 16">
  <path fill="#E86C60" d="M15.3114386,2.72289338 L12.7743667,0.185821488 C12.526609,-0.0619362675 12.1252315,-0.0619362675 11.8774737,0.185821488 L7.88604442,4.17725081 L3.8946151,0.185821488 C3.64685734,-0.0619362675 3.24547989,-0.0619362675 2.99772213,0.185821488 L0.460650238,2.72289338 C0.212892483,2.97065113 0.212892483,3.37202859 0.460650238,3.61978635 L4.45207956,7.61121567 L0.460650238,11.602645 C0.212892483,11.8504028 0.212892483,12.2517802 0.460650238,12.499538 L2.99772213,15.0366099 C3.24547989,15.2843676 3.64685734,15.2843676 3.8946151,15.0366099 L7.88604442,11.0451805 L11.8774737,15.0366099 C12.0013526,15.1604887 12.1636364,15.2224313 12.3259202,15.2224313 C12.488204,15.2224313 12.6504878,15.1604887 12.7743667,15.0366099 L15.3114386,12.499538 C15.5591964,12.2517802 15.5591964,11.8504028 15.3114386,11.602645 L11.3200093,7.61121567 L15.3114386,3.61978635 C15.5592027,3.37202859 15.5592027,2.97065113 15.3114386,2.72289338 Z" transform="translate(.389 .389)"/>
</svg>
