<svg xmlns="http://www.w3.org/2000/svg" width="34" height="35" viewBox="0 0 34 35">
  <g fill="none" transform="translate(-.677 -.58)">
    <circle cx="17.655" cy="17.935" r="16.977" fill="#72C472"/>
    <path fill="#FFF" d="M24.4457361,16.2370737 L19.3527646,16.2370737 L19.3527646,11.1441022 C19.3527646,10.2069954 18.5922141,9.44644496 17.6551074,9.44644496 C16.7180006,9.44644496 15.9574502,10.2069954 15.9574502,11.1441022 L15.9574502,16.2370737 L10.8644786,16.2370737 C9.92737185,16.2370737 9.16682143,16.9976241 9.16682143,17.9347309 C9.16682143,18.8718377 9.92737185,19.6323881 10.8644786,19.6323881 L15.9574502,19.6323881 L15.9574502,24.7253597 C15.9574502,25.6624664 16.7180006,26.4230169 17.6551074,26.4230169 C18.5922141,26.4230169 19.3527646,25.6624664 19.3527646,24.7253597 L19.3527646,19.6323881 L24.4457361,19.6323881 C25.3828429,19.6323881 26.1433933,18.8718377 26.1433933,17.9347309 C26.1433933,16.9976241 25.3828429,16.2370737 24.4457361,16.2370737 Z"/>
  </g>
</svg>
