<svg xmlns="http://www.w3.org/2000/svg" width="11" height="11" viewBox="0 0 11 11">
  <path fill="#FFF" d="M10.0263989,1.79679165 L8.65645688,0.494136799 C8.47379794,0.320449485 8.19980955,0.320449485 8.01715062,0.494136799 L5.14027244,3.22971199 L2.26339427,0.494136799 C2.08073534,0.320449485 1.80674694,0.320449485 1.62408801,0.494136799 L0.254146027,1.79679165 C0.0714870952,1.97047897 0.0714870952,2.23100994 0.254146027,2.40469725 L3.1310242,5.14027244 L0.254146027,7.87584764 C0.0714870952,8.04953495 0.0714870952,8.31006592 0.254146027,8.48375324 L1.62408801,9.78640809 C1.80674694,9.9600954 2.08073534,9.9600954 2.26339427,9.78640809 L5.14027244,7.0508329 L8.01715062,9.78640809 C8.10848008,9.87325175 8.24547428,9.91667358 8.33680375,9.91667358 C8.42813321,9.91667358 8.56512741,9.87325175 8.65645688,9.78640809 L10.0263989,8.48375324 C10.2090578,8.31006592 10.2090578,8.04953495 10.0263989,7.87584764 L7.14952069,5.14027244 L10.0263989,2.40469725 C10.2090578,2.23100994 10.2090578,1.97047897 10.0263989,1.79679165 Z" transform="translate(.67 .478)"/>
</svg>
