<svg xmlns="http://www.w3.org/2000/svg" xmlns:xlink="http://www.w3.org/1999/xlink" x="0px" y="0px" width="32" height="32" viewBox="0 0 32 32"><g class="nc-icon-wrapper" fill="#6862fa"><path fill="#6862fa" d="M30,17c0.552,0,1-0.448,1-1s-0.448-1-1-1H9V9l-8,7l8,7v-6H30z"></path> <path data-color="color-2" fill="#6862fa" d="M30,26H15c-0.552,0-1,0.448-1,1s0.448,1,1,1h15c0.552,0,1-0.448,1-1S30.552,26,30,26z"></path> <path data-color="color-2" fill="#6862fa" d="M15,6h15c0.552,0,1-0.448,1-1s-0.448-1-1-1H15c-0.552,0-1,0.448-1,1S14.448,6,15,6z"></path></g></svg>