<svg xmlns="http://www.w3.org/2000/svg" width="17" height="23" viewBox="0 0 17 23">
  <g fill="none" transform="translate(.454 .157)">
    <circle cx="8.199" cy="19.775" r="2.412" fill="#B3B3B3"/>
    <path fill="#EFD358" d="M7.32784516,0.0452836886 C3.59243522,0.432734381 0.540148699,3.40431186 0.0678363063,7.12994546 C-0.396850832,10.7954211 1.56259352,14.1962651 4.82305768,15.6678717 L4.82305768,18.3276192 L11.5753384,18.3276192 L11.5753384,15.6678717 C14.5160387,14.3405903 16.3983961,11.4439294 16.3983961,8.19919805 C16.3983961,3.39076389 12.2380651,-0.464026379 7.32784516,0.0452836886 Z"/>
    <path fill="#EDE4BC" d="M4.34075191,8.68150382 C4.07439855,8.68150382 3.85844614,8.46578292 3.85844614,8.19919805 C3.85844614,5.80556758 5.80580391,3.85844614 8.19919805,3.85844614 C8.46555142,3.85844614 8.68150382,4.07416704 8.68150382,4.34075191 C8.68150382,4.60733678 8.46555142,4.82305768 8.19919805,4.82305768 C6.33756531,4.82305768 4.82305768,6.33779682 4.82305768,8.19919805 C4.82305768,8.46578292 4.60710527,8.68150382 4.34075191,8.68150382 Z"/>
    <path fill="#E6E6E6" d="M4.82305768,17.8453134 L4.82305768,19.7745365 C4.82305768,20.3072673 5.25493838,20.739148 5.78766922,20.739148 L10.6107269,20.739148 C11.1434867,20.739148 11.5753384,20.3072673 11.5753384,19.7745365 L11.5753384,17.8453134 L4.82305768,17.8453134 Z"/>
  </g>
</svg>
