<svg xmlns="http://www.w3.org/2000/svg" width="25" height="25" viewBox="0 0 25 25">
  <g fill="none" fill-rule="evenodd" stroke="#FFF" stroke-linecap="square" stroke-width="2" transform="translate(1.754 1.164)">
    <path d="M11 3C11 1.3 9.7 0 8 0 6.7 0 5.6.8 5.2 2 5.1 2 5.1 2 5 2 2.2 2 0 4.2 0 7 0 8.3.5 9.6 1.4 10.5.6 11 0 11.9 0 13 0 14 .5 14.9 1.3 15.4 1.1 15.9 1 16.5 1 17 1 19.8 3.2 22 6 22 8.8 22 11 19.8 11 17L11 9M11 3C11 1.3 12.3 0 14 0 15.3 0 16.4.8 16.8 2 16.9 2 16.9 2 17 2 19.8 2 22 4.2 22 7 22 8.3 21.5 9.6 20.6 10.5 21.4 11 22 11.9 22 13 22 14 21.5 14.9 20.7 15.4 20.9 15.9 21 16.4 21 17 21 19.8 18.8 22 16 22 13.2 22 11 19.8 11 17M5 12C3.6 12 2.3 11.4 1.4 10.5M17 12C18.4 12 19.7 11.4 20.6 10.5M11 3C11 4.7 9.7 6 8 6M11 3C11 4.7 12.3 6 14 6"/>
    <path d="M7 14.8C5.8 14.4 5 13.3 5 12 5 11.1 5.4 10.3 6 9.8M15 14.8C16.2 14.4 17 13.3 17 12 17 11.1 16.6 10.3 16 9.8"/>
  </g>
</svg>
