<svg xmlns="http://www.w3.org/2000/svg" width="500" height="415" viewBox="0 0 500 415">
  <defs>
    <linearGradient id="ill-jog-a" x1="49.999%" x2="49.999%" y1="100%" y2=".002%">
      <stop offset="0%" stop-color="gray" stop-opacity=".25"/>
      <stop offset="54%" stop-color="gray" stop-opacity=".12"/>
      <stop offset="100%" stop-color="gray" stop-opacity=".1"/>
    </linearGradient>
    <linearGradient id="ill-jog-b" x1="47407%" x2="47407%" y1="29261%" y2="29258%">
      <stop offset="0%" stop-color="gray" stop-opacity=".25"/>
      <stop offset="54%" stop-color="gray" stop-opacity=".12"/>
      <stop offset="100%" stop-color="gray" stop-opacity=".1"/>
    </linearGradient>
  </defs>
  <g fill="none" transform="translate(-.368 .643)">
    <g opacity=".5" transform="translate(157.214 36.32)">
      <path fill="url(#ill-jog-a)" d="M203.351376,353.094199 C203.351376,353.094199 196.917519,342.717011 185.538933,340.200542 C179.006493,331.104937 162.89072,308.160975 162.89072,304.1917 C162.89072,299.226216 155.938004,281.849614 141.046739,272.914856 C141.046739,272.914856 129.631832,260.005634 125.159264,228.733978 C125.159264,228.733978 120.19378,216.322861 122.181011,211.855481 C124.168243,207.388102 124.168243,199.444365 109.27179,180.08572 C109.036573,179.777864 108.799627,179.482114 108.560952,179.198471 L108.34822,178.954607 L108.260014,178.856024 C112.089196,173.708938 129.808245,149.841406 133.341677,144.092444 C134.774291,141.76693 135.552297,139.097689 135.593527,136.366627 C135.653818,133.458024 133.920327,130.811411 131.229919,129.704473 L97.7375451,115.954699 C95.1422317,111.69146 91.0314695,108.566687 86.2292436,107.206729 C83.0175039,104.161024 80.8798032,99.029505 79.5567117,94.697029 L83.9462622,94.697029 C95.2055112,84.651911 101.654934,75.6393233 104.871862,67.7163402 C117.443825,85.4872747 138.307162,88.9895756 138.307162,88.9895756 C130.851152,86.2759409 127.198382,73.6884119 125.43426,60.7791901 C138.815644,74.6483018 157.914858,69.8747953 157.914858,69.8747953 C154.334728,70.5908213 149.01642,66.2790997 143.677356,60.4678744 C152.264479,33.367848 134.95533,22.2850112 122.632419,17.9214037 C142.62926,20.5157007 151.958352,29.1598983 151.958352,29.1598983 C144.51272,9.52625857 126.684711,7.88666287 116.089602,8.84655276 C123.742778,2.35043308 137.560004,2.35043308 137.560004,2.35043308 C104.301116,-6.58432578 90.4008732,19.2289293 90.4008732,19.2289293 C85.4353887,14.7615499 92.3881047,2.35043308 92.3881047,2.35043308 C77.060998,5.57773854 80.0859483,19.6232625 81.7618642,24.7703477 C57.0070822,24.1269621 47.2473369,37.0413725 43.3974002,47.2006396 C39.8224589,47.1279993 28.869337,48.4147706 33.0669095,67.6333227 C37.6640038,88.7768432 31.6244804,89.0674045 30.7009107,88.9947642 C31.4532568,89.0725931 35.7286582,89.2697597 38.146543,84.2990866 L38.2451263,84.5170076 C38.3229552,84.6934198 38.4007842,84.8646434 38.4786131,85.035867 C38.556442,85.2070906 38.670591,85.4353887 38.7691743,85.6377439 L39.0182268,86.1254717 C39.1254578,86.3295564 39.2361478,86.530182 39.3502969,86.7273486 L39.6097266,87.1787563 C39.7307937,87.382841 39.8535905,87.5851962 39.9781167,87.7858218 L40.242735,88.1957207 C40.3776385,88.4032645 40.516001,88.6073492 40.6578225,88.8079748 L40.9224408,89.176365 C41.0729101,89.3839087 41.2233793,89.5914525 41.3842257,89.7938077 L41.6384668,90.1155005 C41.8045018,90.3282329 41.9757254,90.5357766 42.1573262,90.7433204 L42.3960015,91.0183159 C42.5827909,91.2362368 42.7747689,91.4489692 42.9667469,91.6565129 L43.1742906,91.8744339 C43.387023,92.0975434 43.5997553,92.3154644 43.8176763,92.5281967 L43.9837113,92.6838545 C44.2223866,92.9121527 44.4610619,93.1404508 44.7101145,93.3583717 L44.8035091,93.4362007 C50.9404652,98.8557297 59.285289,101.041095 67.2908755,99.3252548 C67.3427615,99.6365705 67.3929179,99.9565338 67.4413447,100.285145 L67.5814368,100.248825 C68.1625593,104.337437 68.588024,109.152452 68.8370765,112.270797 C65.145975,116.097368 62.7158895,120.962971 61.8739834,126.212549 C61.0801285,131.572367 59.2537434,134.950141 57.3443408,137.072276 C54.3783491,140.328797 53.2858439,144.876986 54.4491054,149.12538 C51.3982121,155.600745 50.0076689,157.084683 50.0076689,157.084683 L25.6835403,138.551025 L21.8491693,135.313343 L21.6883229,135.510509 L20.0694816,134.280813 C20.0694816,134.280813 15.4360671,112.857108 3.88106831,121.615455 C0.767911911,123.991831 -0.197166572,126.549808 0.0933946919,129.01439 C-0.0674517219,136.013803 10.569166,142.566997 10.569166,142.566997 C10.569166,142.566997 39.5163319,164.877951 45.9086797,168.930243 C48.0506819,170.296898 50.502558,171.101698 53.0378078,171.270299 C56.2223511,171.489892 59.1971569,169.670452 60.4523086,166.735468 L64.3385655,157.639863 C65.5849647,157.721944 66.8366619,157.62055 68.0535988,157.338924 C66.9639943,157.656781 65.8406704,157.844872 64.7069557,157.899292 C66.472839,157.950865 68.2327472,157.67104 69.8955497,157.074306 L69.8384752,156.846008 C70.1549794,156.737047 70.4766722,156.628087 70.8087422,156.498372 L71.7997637,160.467646 L71.8412725,160.467646 L71.5507112,160.71151 C71.5507112,160.71151 80.48547,180.070155 80.48547,189.503018 C80.48547,189.503018 79.5515231,193.010508 81.0043294,200.533969 C76.7185508,205.432002 70.4299749,211.284736 62.5900094,214.823357 L62.5900094,214.880432 L62.4966147,214.92194 L30.3013889,248.58035 C30.3013889,248.58035 26.3321145,255.034961 31.7905154,262.978698 C36.320158,269.568212 62.3668998,310.988758 71.1200579,324.93051 C70.8450624,324.889002 70.5596897,324.847493 70.2639399,324.78523 L64.3385655,341.175998 C64.3385655,341.175998 50.3293617,356.347447 50.2826644,363.876097 C50.2826644,363.876097 50.2826644,363.876097 50.2826644,363.907228 C50.2826644,364.057698 50.2826644,364.202978 50.2826644,364.34307 C50.2826644,364.37939 50.2826644,364.415711 50.2826644,364.452031 C50.2826644,364.488351 50.2826644,364.680329 50.3241732,364.789289 C50.3656819,364.89825 50.3241732,364.877495 50.3501161,364.924193 C50.3760591,364.97089 50.3916249,365.116171 50.4175678,365.209566 C50.4435108,365.30296 50.4486994,365.30296 50.4642652,365.354846 C50.479831,365.406732 50.5213397,365.52607 50.5524713,365.609087 L50.619923,365.754368 C50.6562432,365.832197 50.6925633,365.904837 50.7340721,365.977477 L50.8222782,366.117569 C50.8637869,366.185021 50.9104843,366.252473 50.9623702,366.319925 L51.0713307,366.454828 L51.2373657,366.636429 L51.3670805,366.760955 L51.5590585,366.921802 L51.7095278,367.035951 L51.9326373,367.181231 L52.1038609,367.285003 L52.358102,367.409529 L52.55008,367.497735 L52.8406412,367.601507 L53.048185,367.674148 L53.380255,367.762354 L53.598176,367.819428 L54.0028863,367.892069 L54.2052415,367.928389 C54.4179738,367.95952 54.6410834,367.980275 54.8745701,367.99584 L98.5832859,335.219492 C98.5832859,335.219492 98.2615931,334.700633 97.6908477,333.906778 C95.2989059,330.518626 88.4707162,321.687639 81.8189387,321.101328 C78.0105107,316.358953 68.5050065,303.641709 64.5772409,290.296645 C64.5772409,284.34014 66.5644724,279.400598 51.668019,257.530674 C51.668019,257.530674 60.3796683,245.337478 80.2416061,238.083824 L80.5477332,237.974864 L81.6736581,237.58053 C82.6075178,237.590025 83.5371217,237.453473 84.4288015,237.17582 C87.0135074,234.596033 89.8680702,232.301598 92.9432842,230.332065 C94.4116563,232.96787 96.0564406,235.743768 97.8568827,238.633815 C97.8568827,238.633815 98.6040403,238.753153 99.8544914,238.841359 L100.534197,239.988038 L121.18999,274.870955 C121.18999,274.870955 121.708849,283.312798 125.159264,284.303819 C128.101197,285.144372 165.900104,330.79881 177.434349,344.797637 L168.613739,361.001616 C168.613739,361.001616 151.076291,365.235508 151.403173,373.272641 C151.435932,374.674504 151.893708,376.033355 152.715887,377.169275 L181.507395,377.169275 L203.351376,353.338062 L203.257981,353.192782 L203.351376,353.094199 Z M102.692652,166.885937 C102.51624,166.235633 102.343287,165.557657 102.173793,164.852008 C101.736401,162.335941 101.450514,159.795875 101.317675,157.24553 C101.281672,156.491139 101.18099,155.741229 101.016736,155.004057 C101.016736,154.926228 101.058245,154.848399 101.068622,154.765382 C101.442201,151.973918 102.651144,144.984882 102.625201,137.160482 C102.625201,135.085045 102.526617,133.009607 102.313885,130.871906 C119.280587,137.253877 122.435252,140.123169 122.435252,140.123169 L102.692652,166.885937 Z M40.9016865,59.0410111 C40.0933558,60.1646195 39.3767469,61.3514487 38.7587971,62.5900094 C38.8521918,60.1980675 39.4229372,57.1834944 41.3530941,54.7500438 C41.0971288,56.1675373 40.9428073,57.6015133 40.8913093,59.0410111 L40.9016865,59.0410111 Z"/>
      <path fill="url(#ill-jog-b)" d="M30.7060993,88.9999528 L30.5919502,88.9999528 L30.7060993,88.9999528 Z"/>
    </g>
    <path fill="#FDA57D" d="M256.160886,271.840817 L277.750625,308.301067 C277.750625,308.301067 278.227976,316.457536 281.590185,317.417426 C284.952394,318.377316 335.318076,379.784326 335.318076,379.784326 L342.514655,374.984877 C342.514655,374.984877 318.060812,341.430239 318.060812,336.63079 C318.060812,331.83134 311.31564,315.04105 296.938046,306.40723 C296.938046,306.40723 285.901906,293.954604 281.584996,263.71029 L256.160886,271.840817 Z"/>
    <path fill="#000" d="M318.060812,336.63079 C318.060812,331.83134 311.346771,315.04105 296.953612,306.40723 C296.953612,306.40723 285.917472,293.954604 281.600562,263.71029 L280.687369,264.00604 C285.035411,294.011679 295.993722,306.40723 295.993722,306.40723 C310.386881,315.04105 317.100922,331.83134 317.100922,336.63079 C317.100922,341.430239 341.565143,375.026385 341.565143,375.026385 L334.991194,379.410747 L335.328453,379.825835 L342.525033,375.026385 C342.525033,375.026385 318.060812,341.430239 318.060812,336.63079 Z" opacity=".05"/>
    <path fill="#FDA57D" d="M221.070424,250.375603 L189.93886,282.89771 C189.93886,282.89771 186.099301,289.124023 191.376101,296.808331 C196.652901,304.492639 232.174015,361.084633 232.174015,361.084633 L241.269621,354.85832 C241.269621,354.85832 227.836351,339.505271 223.04209,323.207897 C223.04209,317.448558 224.96187,312.654297 210.589464,291.557474 C210.589464,291.557474 220.183175,278.124204 242.239888,271.410163 L225.449598,251.262853 C224.453388,250.085042 222.097766,249.799669 221.070424,250.375603 Z"/>
    <path fill="#000" d="M210.584276,291.557474 C210.584276,291.557474 220.177986,278.124204 242.234699,271.410163 L225.444409,251.262853 C225.058954,250.854455 224.574639,250.552428 224.0383,250.38598 C224.202201,250.501184 224.351972,250.63528 224.484519,250.785502 L241.269621,270.90687 C219.223285,277.62091 209.619197,291.038614 209.619197,291.038614 C224.012357,312.145815 222.071823,316.945264 222.071823,322.689038 C226.871272,339.001977 240.299354,354.339461 240.299354,354.339461 L231.644779,360.259647 L232.163638,361.053502 L241.269621,354.85832 C241.269621,354.85832 227.836351,339.505271 223.04209,323.207897 C223.057656,317.443369 224.977436,312.64392 210.584276,291.557474 Z" opacity=".05"/>
    <path fill="#FDA57D" d="M236.817807,161.323764 L219.010553,202.832516 C217.793302,205.664843 214.920853,207.420344 211.845104,207.21169 C209.394734,207.055791 207.023164,206.284897 204.949463,204.970217 C198.775036,201.037263 170.798137,179.494221 170.798137,179.494221 C170.798137,179.494221 153.213992,168.665625 164.379846,160.203028 C175.545701,151.740431 180.044212,172.437733 180.044212,172.437733 L208.970623,194.473692 C208.970623,194.473692 213.847901,189.285098 225.408089,155.382824 C225.392523,155.388013 237.009785,148.871139 236.817807,161.323764 Z"/>
    <path fill="#000" d="M218.958667 201.41603C217.741417 204.248357 214.868967 206.003858 211.793218 205.795204 209.342781 205.63219 206.972964 204.854148 204.902765 203.532977 198.728339 199.600022 170.75144 178.05698 170.75144 178.05698 170.75144 178.05698 162.107242 172.733483 160.789339 166.642073 159.834638 173.672618 170.8604 180.459299 170.8604 180.459299 170.8604 180.459299 198.837299 202.002341 205.011726 205.935296 207.081924 207.256467 209.451741 208.034509 211.902179 208.197523 214.977928 208.406177 217.850377 206.650676 219.067627 203.818349L236.874882 162.309597C236.89051 161.527427 236.847148 160.745192 236.745167 159.969541L218.958667 201.41603zM257.131153 273.506355L257.790104 274.616714C257.790104 274.616714 273.693145 275.099254 281.7199 264.607917L281.20104 262.672571 257.131153 273.506355z" opacity=".05"/>
    <path fill="#FDA57D" d="M235.769711 126.746974C235.769711 126.746974 238.410705 144.258479 246.561987 148.09285L227.364189 154.319163C227.364189 154.319163 226.165624 135.370417 224.251032 132.490748 222.336441 129.611078 235.769711 126.746974 235.769711 126.746974zM229.776885 197.98637C229.776885 197.98637 238.410705 216.69644 238.410705 225.812799 238.410705 225.812799 259.517906 228.20993 266.237135 216.69644 266.237135 216.69644 259.040555 209.982399 258.080665 192.232219 257.120775 174.482039 229.776885 197.98637 229.776885 197.98637z"/>
    <path fill="#6C63FF" d="M237.21214 353.182405C237.21214 353.182405 235.7749 357.981854 228.57832 356.539425L222.818981 372.369825C222.818981 372.369825 199.792 397.316585 213.702621 398.276475L255.917022 366.626052C255.917022 366.626052 245.845961 350.780086 237.21214 353.182405zM339.852907 371.409935C339.852907 371.409935 336.495886 378.606515 332.178976 375.726846L323.560722 391.557246C323.560722 391.557246 301.493631 396.839234 308.202483 406.910295L336.028913 406.910295 357.136113 383.883315C357.136113 383.883315 350.9098 373.807066 339.852907 371.409935z"/>
    <path fill="#000" d="M235.769711,127.706864 C235.769711,127.706864 222.336441,130.586534 224.256221,133.466203 C224.842532,134.343076 225.361392,136.719452 225.812799,139.593933 C230.023255,138.662804 233.919324,136.653084 237.118746,133.761953 C236.55925,131.769634 236.108902,129.748265 235.769711,127.706864 Z" opacity=".05"/>
    <path fill="#F55F44" d="M281.107645,76.6147789 C281.107645,76.6147789 303.657275,112.115139 313.250985,110.195359 C313.250985,110.195359 294.053187,114.994809 281.107645,100.601649 C268.162103,86.2084892 281.107645,76.6147789 281.107645,76.6147789 Z"/>
    <path fill="#000" d="M281.107645,76.6147789 C281.107645,76.6147789 303.657275,112.115139 313.250985,110.195359 C313.250985,110.195359 294.053187,114.994809 281.107645,100.601649 C268.162103,86.2084892 281.107645,76.6147789 281.107645,76.6147789 Z" opacity=".05"/>
    <path fill="#F55F44" d="M203.63156,88.3669443 C203.63156,88.3669443 187.80116,85.9698139 192.59542,108.036904 C197.389681,130.103994 190.19829,128.666754 190.19829,128.666754 C190.19829,128.666754 202.189131,130.586534 198.35476,107.077014 C198.35476,107.077014 196.43498,97.9606546 202.67167,93.6437444 C208.90836,89.3268342 203.63156,88.3669443 203.63156,88.3669443 Z"/>
    <circle cx="220.422" cy="114.274" r="24.947" fill="#FDA57D"/>
    <path fill="#F55F44" d="M240.330485,68.447932 C240.330485,68.447932 231.696665,48.7779721 249.924196,44.9436012 C249.924196,44.9436012 243.210155,56.9344419 248.004416,61.2565407 C248.004416,61.2565407 261.437686,36.3097808 293.581025,44.9436012 C293.581025,44.9436012 272.473825,44.9436012 268.634265,57.3962268 C268.634265,57.3962268 313.256174,62.1956762 298.857826,102.972836 C298.857826,102.972836 290.224005,86.1825463 279.187866,84.2627665 C268.151726,82.3429867 253.763755,78.5034271 254.723645,76.588836 C255.683535,74.6742448 240.330485,68.447932 240.330485,68.447932 Z"/>
    <path fill="#F55F44" d="M264.794706 52.6279089C264.794706 52.6279089 296.938046 43.0341986 307.491646 70.8554396 307.491646 70.8554396 294.058376 58.402814 264.794706 59.3419495L264.794706 52.6279089zM280.386431 71.0993035C280.386431 71.0993035 278.466651 122.912603 294.297051 128.692697 294.297051 128.692697 254.479781 121.978656 253.042541 79.7590669L280.386431 71.0993035z"/>
    <path fill="#FFF" d="M197.633545,114.512269 C197.633545,107.894179 200.263281,101.5473 204.943951,96.8685764 C209.62462,92.189853 215.972592,89.5627566 222.590682,89.5655095 C223.182182,89.5655095 223.768493,89.5914525 224.349616,89.6329613 C215.298709,88.2060706 206.194157,91.8567321 200.636299,99.1413143 C195.07844,106.425897 193.96225,116.171373 197.729118,124.523956 C201.495986,132.876538 209.539339,138.491221 218.678483,139.147714 C206.560848,137.226622 197.637835,126.78124 197.633545,114.512269 Z" opacity=".1"/>
    <path fill="#F55F44" d="M200.155202,99.7299652 C200.155202,99.7299652 200.508026,62.2268078 245.602097,67.041823 C245.602097,67.041823 290.696167,90.5461538 241.762537,134.202984 L236.330079,134.202984 L236.968276,122.673928 C237.328753,116.397017 235.105213,110.245952 230.814468,105.650405 C226.523723,101.054858 220.53947,98.4150739 214.252612,98.3446106 C209.518942,98.3331825 204.796096,98.7972973 200.155202,99.7299652 Z"/>
    <path fill="#000" d="M239.847946,67.0210686 L239.370595,65.1012889 C239.370595,65.1012889 257.359451,68.2144452 256.399561,73.0190833 C255.439671,77.8237213 239.847946,67.0210686 239.847946,67.0210686 Z" opacity=".4"/>
    <ellipse cx="236.011" cy="115.473" fill="#FDA57D" rx="4.317" ry="2.397" transform="rotate(-60 236.011 115.473)"/>
    <path fill="#000" d="M220.727977 250.738805C220.727977 250.738805 229.211328 272.229961 238.130521 272.769575L239.557385 272.250715 221.988805 249.877498 220.727977 250.738805zM258.558016 194.629349C258.075477 185.725722 250.956726 187.204471 243.978067 190.888373 248.647801 189.591225 252.456229 190.623755 252.798677 197.02648 253.763755 214.766283 260.955146 221.511455 260.955146 221.511455 259.598581 223.769149 257.680551 225.637127 255.387785 226.933536 259.927805 225.641576 264.270658 223.30152 266.709297 219.109136 266.693731 219.09357 259.517906 212.379529 258.558016 194.629349z" opacity=".05"/>
    <path fill="#3AD29F" d="M238.410705,225.812799 C238.410705,225.812799 234.571146,240.205959 255.200996,273.304 C255.200996,273.304 272.951176,276.18367 281.584996,263.71029 C281.584996,263.71029 276.785547,251.719449 278.705326,247.39735 C280.625106,243.075251 280.625106,235.40651 266.252701,216.69644 C251.880295,197.98637 238.410705,225.812799 238.410705,225.812799 Z"/>
    <path fill="#3AD29F" d="M221.137876,250.27702 C221.137876,250.27702 229.771696,275.701131 242.245076,271.86676 C242.245076,271.86676 249.919007,263.71029 261.442874,259.875919 C272.966741,256.041548 284.469854,241.165849 266.242324,216.701628 C266.242324,216.701628 257.608503,227.255228 238.415894,225.817988 L245.129935,228.215118 C245.129935,228.215118 236.013575,243.562979 221.137876,250.27702 Z"/>
    <path fill="#000" d="M259.855164 260.42591C259.855164 260.42591 272.572408 256.347675 274.201627 248.269034M278.705326 247.402539C280.625106 243.085629 280.625106 235.411698 266.252701 216.701628 262.548045 211.886613 258.905652 210.158811 255.543443 210.241829 258.775937 210.330035 262.247106 212.114911 265.77535 216.701628 280.16851 235.411698 280.16851 243.085629 278.227976 247.402539 276.287442 251.719449 281.107645 263.715478 281.107645 263.715478 275.265289 272.157321 265.251302 273.573807 259.383002 273.573807 265.168285 273.615316 275.576604 272.370053 281.584996 263.715478 281.584996 263.71029 276.790735 251.719449 278.705326 247.402539z" opacity=".05"/>
    <path fill="#6C63FF" d="M237.295158,145.457044 C235.146568,145.449178 233.053196,146.13726 231.328275,147.418333 C227.644373,150.178665 221.718999,155.870552 220.432227,164.644465 C219.664315,169.833059 217.900193,173.086307 216.058243,175.135802 C211.954065,179.706953 211.616806,186.607783 215.669098,191.220443 C218.50207,194.447749 222.756717,196.409037 229.066048,193.897758 L230.025938,197.737317 C230.025938,197.737317 257.369828,199.174558 258.329718,191.977978 C259.289608,184.781398 266.003648,148.803687 240.102187,145.441478 L237.295158,145.457044 Z"/>
    <circle cx="241.529" cy="160.328" r="11.513" fill="#FDA57D"/>
    <path fill="#000" d="M229.776885,193.669459 C229.776885,193.669459 232.656555,194.14681 235.536224,188.87001" opacity=".05"/>
    <g fill="#000" opacity=".05" transform="translate(223.11 145.28)">
      <path d="M16.9822681.41508752L16.0223783.41508752C41.9290281 3.77210783 35.220176 39.7550072 34.249909 46.9515871 33.5805803 51.9897118 19.9760869 52.7939439 11.8766917 52.8250755 19.8100519 52.8510184 34.5093387 52.1972556 35.2253646 46.9515871 36.1696887 39.7550072 42.8837294 3.77210783 16.9822681.41508752zM4.98623883 48.8713668C3.42213655 49.5141219 1.76114218 49.8894681.0726403159 49.981726 1.77134257 50.0298566 3.46411434 49.760632 5.06406774 49.1878711L4.98623883 48.8713668z"/>
    </g>
    <path fill="#FDA57D" d="M245.36861,150.733844 L287.448107,168.017051 C290.049262,169.08603 291.725338,171.644468 291.666434,174.456096 C291.635924,177.090587 290.895646,179.668114 289.523545,181.917294 C285.683985,188.143607 264.576785,216.457764 264.576785,216.457764 C264.576785,216.457764 254.023185,234.207944 245.378987,223.171805 C236.73479,212.135665 257.354262,207.341405 257.354262,207.341405 L278.944002,178.077734 C278.944002,178.077734 273.67239,173.257531 239.609271,162.247334 C239.609271,162.247334 232.89523,150.733844 245.36861,150.733844 Z"/>
    <path fill="#000" d="M287.448107,168.017051 L245.36861,150.733844 C244.795097,150.73232 244.221878,150.760029 243.651185,150.816862 L285.543893,168.017051 C288.145048,169.08603 289.821124,171.644468 289.76222,174.456096 C289.723258,177.095275 288.97213,179.674924 287.588199,181.922483 C283.74864,188.148795 262.641439,216.462953 262.641439,216.462953 C262.641439,216.462953 257.074078,225.802422 250.707673,226.720803 C257.816047,227.758522 264.550842,216.462953 264.550842,216.462953 C264.550842,216.462953 285.658042,188.159173 289.497602,181.922483 C290.881533,179.674924 291.632661,177.095275 291.671623,174.456096 C291.72968,171.64319 290.0513,169.084383 287.448107,168.017051 Z" opacity=".05"/>
    <path fill="#FFF" d="M3.3673975,46.2303675 C-0.684894407,41.6125127 -0.352824392,34.706485 3.75654205,30.1457048 C5.59849292,28.0962075 7.38855785,24.8325775 8.13052679,19.6543539 C9.43286388,10.8804298 15.3530496,5.18853466 19.0265742,2.42819901 C20.7514953,1.14712516 22.8448678,0.459041833 24.9934573,0.466841182 L24.5161066,0.466907881 C22.3675171,0.459041833 20.2741447,1.14712516 18.5492235,2.42819901 C14.8653218,5.18853466 8.93994745,10.8804298 7.65317614,19.6543539 C6.88526423,24.8429547 5.12114227,28.0962075 3.2791914,30.1457048 C-0.824986445,34.7168622 -1.16224505,41.6177013 2.89004686,46.2303675 C4.87727836,48.4925974 7.55978145,50.1166295 11.1658543,50.0284233 C8.13653574,49.9616651 5.28771626,48.5742143 3.3673975,46.2303675 Z" opacity=".05" transform="translate(213.251 144.762)"/>
    <path fill="#000" d="M213.702621 396.367072C210.9371 396.175094 209.634763 395.033604 209.318259 393.331745 208.913549 396.071323 209.992776 398.032611 213.702621 398.286852L255.917022 366.636429C255.917022 366.636429 255.605706 366.148701 255.050526 365.365223L213.702621 396.367072zM336.034101 406.189081L308.202483 406.189081C307.51966 405.22511 307.09133 404.104314 306.957221 402.930644 306.866103 404.439126 307.306748 405.93181 308.202483 407.148971L336.028913 407.148971 357.136113 384.121991C357.136113 384.121991 357.006398 383.914447 356.762534 383.566811L336.034101 406.189081z" opacity=".1"/>
    <rect width="8.156" height="8.156" x="176.579" y="175.526" fill="#6C63FF" transform="rotate(40.21 180.657 179.604)"/>
    <rect width="6.714" height="6.714" x="177.296" y="176.244" fill="#FFF" transform="rotate(40.21 180.653 179.601)"/>
    <rect width="1" height="1.437" x="184.554" y="180.404" fill="#6C63FF" rx=".5" transform="rotate(40.21 185.054 181.122)"/>
    <polygon fill="#6C63FF" points="178.908 186.094 174.326 182.223 175.8 180.522 180.381 184.392"/>
    <polygon fill="#6C63FF" points="185.337 178.529 180.755 174.658 181.751 173.439 186.328 177.31"/>
    <path fill="#6C63FF" d="M381.953158 237.689491C379.667486 236.051244 376.524973 236.343159 374.580166 238.374385 372.465741 240.676587 372.566923 244.243266 374.808464 246.421895L381.880518 253.426496C382.340466 253.886369 383.086109 253.886369 383.546057 253.426496L390.550659 246.380386C392.778755 244.188927 392.859233 240.622612 390.732259 238.332877 388.776561 236.31474 385.63496 236.040596 383.359267 237.689491 382.940867 237.996588 382.371558 237.996588 381.953158 237.689491zM74.7883938 77.8807959C72.5027214 76.2425489 69.3602083 76.5344643 67.4154018 78.5656903 65.3009764 80.867892 65.4021588 84.4345713 67.6436999 86.6131996L74.7157535 93.6178014C75.1757015 94.0776736 75.9213442 94.0776736 76.3812922 93.6178014L83.3858941 86.5716908C85.6139903 84.3802322 85.6944681 80.813917 83.5674949 78.5241815 81.6117969 76.5060453 78.4701951 76.2319013 76.1945028 77.8807959 75.7761029 78.1878934 75.2067937 78.1878934 74.7883938 77.8807959zM9.41210951 220.567131C7.12643708 218.928884 3.98392398 219.220799 2.03911744 221.252025-.0753079214 223.554227.0258744709 227.120906 2.26741558 229.299534L9.33946919 236.304136C9.79941721 236.764008 10.5450598 236.764008 11.0050079 236.304136L18.0096098 229.258026C20.237706 227.066567 20.3181838 223.500252 18.1912105 221.210516 16.2355125 219.19238 13.0939107 218.918236 10.8182185 220.567131 10.3998186 220.874228 9.83050939 220.874228 9.41210951 220.567131zM381.434299 63.8715921C379.148626 62.2333451 376.006113 62.5252605 374.061307 64.5564865 371.946881 66.8586882 372.048064 70.4253675 374.289605 72.6039958L381.361659 79.6085977C381.821607 80.0684698 382.567249 80.0684698 383.027197 79.6085977L390.031799 72.562487C392.259895 70.3710284 392.340373 66.8047132 390.2134 64.5149777 388.257702 62.4968416 385.1161 62.2226976 382.840408 63.8715921 382.422008 64.1786896 381.852699 64.1786896 381.434299 63.8715921z"/>
    <rect width="1.557" height="8.821" x="338.296" y="38.354" fill="#3AD29F"/>
    <rect width="1.557" height="8.821" x="338.296" y="38.354" fill="#3AD29F" transform="rotate(90 339.075 42.764)"/>
    <rect width="1.557" height="8.821" x="406.786" y="158.211" fill="#3AD29F"/>
    <rect width="1.557" height="8.821" x="406.786" y="158.211" fill="#3AD29F" transform="rotate(90 407.564 162.62)"/>
    <rect width="1.557" height="8.821" x="100.659" y="267.69" fill="#3AD29F"/>
    <rect width="1.557" height="8.821" x="100.659" y="267.69" fill="#3AD29F" transform="rotate(90 101.437 272.1)"/>
    <rect width="1.557" height="8.821" x="64.857" y="38.354" fill="#3AD29F"/>
    <rect width="1.557" height="8.821" x="64.857" y="38.354" fill="#3AD29F" transform="rotate(90 65.636 42.764)"/>
    <rect width="1.557" height="8.821" x="133.347" y="52.363" fill="#3AD29F"/>
    <rect width="1.557" height="8.821" x="133.347" y="52.363" fill="#3AD29F" transform="rotate(90 134.125 56.774)"/>
    <path fill="#F55F44" d="M100.705421,148.814064 C99.8264949,148.419282 99.380957,147.430188 99.667702,146.510329 C99.6898868,146.441305 99.7038201,146.369897 99.7092108,146.297596 C99.7364077,145.875904 99.4831538,145.4865 99.0866597,145.34036 C98.6901655,145.19422 98.2447708,145.326116 97.9917862,145.664588 C97.9500453,145.722601 97.9152191,145.785288 97.8880143,145.851377 C97.4932321,146.730303 96.5041378,147.175841 95.5842786,146.889096 C95.5152548,146.866911 95.4438469,146.852978 95.3715462,146.847587 C94.9498535,146.82039 94.5604495,147.073644 94.4143096,147.470138 C94.2681698,147.866633 94.4000658,148.312027 94.7385377,148.565012 C94.796551,148.606753 94.8592383,148.641579 94.9253271,148.668784 C95.804253,149.063566 96.249791,150.05266 95.9630459,150.972519 C95.9408611,151.041543 95.9269279,151.112951 95.9215372,151.185252 C95.8943403,151.606945 96.1475942,151.996349 96.5440883,152.142488 C96.9405825,152.288628 97.3859772,152.156732 97.6389618,151.81826 C97.6807026,151.760247 97.7155289,151.69756 97.7427337,151.631471 C98.1375159,150.752545 99.1266102,150.307007 100.046469,150.593752 C100.115493,150.615937 100.186901,150.62987 100.259202,150.635261 C100.680895,150.662458 101.070299,150.409204 101.216438,150.01271 C101.362578,149.616216 101.230682,149.170821 100.89221,148.917836 C100.834197,148.876095 100.77151,148.841269 100.705421,148.814064 Z"/>
    <path fill="#3AD29F" d="M394.8987,3.53343251 C394.019774,3.13865031 393.574236,2.14955599 393.860982,1.22969678 C393.883166,1.16067303 393.8971,1.08926507 393.90249,1.01696442 C393.929687,0.595271664 393.676433,0.205867673 393.279939,0.0597278389 C392.883445,-0.0864119952 392.43805,0.0454840531 392.185066,0.383955956 C392.143325,0.44196918 392.108499,0.504656511 392.081294,0.570745339 C391.686512,1.44967124 390.697417,1.89520922 389.777558,1.60846414 C389.708534,1.58627935 389.637126,1.57234609 389.564826,1.56695539 C389.143133,1.53975848 388.753729,1.79301238 388.607589,2.18950652 C388.461449,2.58600066 388.593345,3.03139536 388.931817,3.28438 C388.98983,3.32612083 389.052518,3.36094713 389.118607,3.38815188 C389.997533,3.78293408 390.443071,4.77202839 390.156325,5.69188761 C390.134141,5.76091136 390.120207,5.83231932 390.114817,5.90461997 C390.08762,6.32631272 390.340874,6.71571672 390.737368,6.86185655 C391.133862,7.00799638 391.579257,6.87610034 391.832241,6.53762843 C391.873982,6.47961521 391.908808,6.41692788 391.936013,6.35083905 C392.330795,5.47191315 393.31989,5.02637517 394.239749,5.31312025 C394.308773,5.33530504 394.380181,5.3492383 394.452481,5.354629 C394.874174,5.3818259 395.263578,5.128572 395.409718,4.73207786 C395.555858,4.33558372 395.423962,3.89018903 395.08549,3.63720439 C395.027477,3.59546355 394.964789,3.56063726 394.8987,3.53343251 Z"/>
    <path fill="#F55F44" d="M212.260192 11.8351829C211.381266 11.4404007 210.935728 10.4513064 211.222473 9.53144717 211.244658 9.46242342 211.258591 9.39101546 211.263982 9.31871481 211.291179 8.89702206 211.037925 8.50761806 210.641431 8.36147823 210.244936 8.2153384 209.799542 8.34723444 209.546557 8.68570635 209.504816 8.74371957 209.46999 8.8064069 209.442785 8.87249573 209.048003 9.75142163 208.058909 10.1969596 207.139049 9.91021453 207.070026 9.88802974 206.998618 9.87409648 206.926317 9.86870578 206.504624 9.84150888 206.11522 10.0947628 205.969081 10.4912569 205.822941 10.8877511 205.954837 11.3331458 206.293309 11.5861304 206.351322 11.6278712 206.414009 11.6626975 206.480098 11.6899023 207.359024 12.0846845 207.804562 13.0737788 207.517817 13.993638 207.495632 14.0626618 207.481699 14.1340697 207.476308 14.2063704 207.449111 14.6280631 207.702365 15.0174671 208.098859 15.1636069 208.495353 15.3097468 208.940748 15.1778507 209.193733 14.8393788 209.235474 14.7813656 209.2703 14.7186783 209.297505 14.6525894 209.692287 13.7736635 210.681381 13.3281256 211.60124 13.6148706 211.670264 13.6370554 211.741672 13.6509887 211.813973 13.6563794 212.235665 13.6835763 212.625069 13.4303224 212.771209 13.0338283 212.917349 12.6373341 212.785453 12.1919394 212.446981 11.9389548 212.388968 11.8972139 212.326281 11.8623877 212.260192 11.8351829zM116.271203 205.888598C115.392277 205.493816 114.946739 204.504722 115.233484 203.584863 115.255669 203.515839 115.269602 203.444431 115.274993 203.37213 115.30219 202.950437 115.048936 202.561033 114.652442 202.414894 114.255948 202.268754 113.810553 202.40065 113.557568 202.739122 113.515827 202.797135 113.481001 202.859822 113.453796 202.925911 113.059014 203.804837 112.06992 204.250375 111.150061 203.96363 111.081037 203.941445 111.009629 203.927512 110.937328 203.922121 110.515635 203.894924 110.126231 204.148178 109.980092 204.544672 109.833952 204.941166 109.965848 205.386561 110.30432 205.639546 110.362333 205.681287 110.42502 205.716113 110.491109 205.743318 111.370035 206.1381 111.815573 207.127194 111.528828 208.047053 111.506643 208.116077 111.49271 208.187485 111.487319 208.259786 111.460122 208.681479 111.713376 209.070883 112.10987 209.217022 112.506364 209.363162 112.951759 209.231266 113.204744 208.892794 113.246485 208.834781 113.281311 208.772094 113.308516 208.706005 113.703298 207.827079 114.692392 207.381541 115.612251 207.668286 115.681275 207.690471 115.752683 207.704404 115.824984 207.709795 116.246677 207.736992 116.63608 207.483738 116.78222 207.087244 116.92836 206.69075 116.796464 206.245355 116.457992 205.99237 116.399979 205.950629 116.337292 205.915803 116.271203 205.888598zM345.607057 139.474595C344.728131 139.079813 344.282594 138.090719 344.569339 137.170859 344.591523 137.101836 344.605457 137.030428 344.610847 136.958127 344.638044 136.536434 344.38479 136.14703 343.988296 136.00089 343.591802 135.854751 343.146407 135.986647 342.893423 136.325119 342.851682 136.383132 342.816856 136.445819 342.789651 136.511908 342.394869 137.390834 341.405774 137.836372 340.485915 137.549627 340.416891 137.527442 340.345483 137.513509 340.273183 137.508118 339.85149 137.480921 339.462086 137.734175 339.315946 138.130669 339.169806 138.527163 339.301702 138.972558 339.640174 139.225543 339.698188 139.267283 339.760875 139.30211 339.826964 139.329315 340.70589 139.724097 341.151428 140.713191 340.864682 141.63305 340.842498 141.702074 340.828564 141.773482 340.823174 141.845783 340.795977 142.267475 341.049231 142.656879 341.445725 142.803019 341.842219 142.949159 342.287614 142.817263 342.540598 142.478791 342.582339 142.420778 342.617165 142.358091 342.64437 142.292002 343.039152 141.413076 344.028247 140.967538 344.948106 141.254283 345.01713 141.276468 345.088538 141.290401 345.160838 141.295792 345.582531 141.322989 345.971935 141.069735 346.118075 140.673241 346.264215 140.276746 346.132319 139.831352 345.793847 139.578367 345.735834 139.536626 345.673146 139.5018 345.607057 139.474595zM499.18944 85.5132176C498.310514 85.1184354 497.864976 84.1293411 498.151721 83.2094819 498.173906 83.1404581 498.187839 83.0690502 498.19323 82.9967495 498.220426 82.5750568 497.967173 82.1856528 497.570678 82.039513 497.174184 81.8933731 496.72879 82.0252692 496.475805 82.3637411 496.434064 82.4217543 496.399238 82.4844416 496.372033 82.5505305 495.977251 83.4294564 494.988157 83.8749943 494.068297 83.5882493 493.999274 83.5660645 493.927866 83.5521312 493.855565 83.5467405 493.433872 83.5195436 493.044468 83.7727975 492.898328 84.1692916 492.752189 84.5657858 492.884085 85.0111805 493.222557 85.2641651 493.28057 85.305906 493.343257 85.3407322 493.409346 85.367937 494.288272 85.7627192 494.73381 86.7518135 494.447065 87.6716727 494.42488 87.7406965 494.410947 87.8121044 494.405556 87.8844051 494.378359 88.3060978 494.631613 88.6955018 495.028107 88.8416417 495.424601 88.9877815 495.869996 88.8558855 496.122981 88.5174135 496.164721 88.4594003 496.199548 88.396713 496.226752 88.3306242 496.621535 87.4516983 497.610629 87.0061603 498.530488 87.2929054 498.599512 87.3150902 498.67092 87.3290234 498.743221 87.3344141 499.164913 87.361611 499.554317 87.1083571 499.700457 86.711863 499.846597 86.3153688 499.714701 85.8699741 499.376229 85.6169895 499.318216 85.5752487 499.255528 85.5404224 499.18944 85.5132176z"/>
  </g>
</svg>
